<svg class="ld-fq-buy-card__glyph" width="46" height="59" viewBox="0 0 46 59" xmlns="http://www.w3.org/2000/svg"><g fill="none" fill-rule="evenodd"><path d="M23 39c-.552 0-1-1.091-1-2.438V2.438C22 1.09 22.448 0 23 0s1 1.091 1 2.438v34.124C24 37.91 23.552 39 23 39z" fill="#C6C6C6"/><g transform="translate(0 37)"><path d="M35 22a10.998 10.998 0 0 1-9.788-6h-4.424A10.998 10.998 0 0 1 11 22C4.935 22 0 17.065 0 11S4.935 0 11 0h24c6.065 0 11 4.935 11 11s-4.935 11-11 11z" fill="#E6E6E6"/><circle fill="#C6C6C6" cx="11" cy="11" r="7"/><path d="M15 10h-3V7a1 1 0 0 0-2 0v3H7a1 1 0 0 0 0 2h3v3a1 1 0 0 0 2 0v-3h3a1 1 0 0 0 0-2z" fill="#5B5B5B"/><circle fill="#72C472" cx="30" cy="11" r="2"/><circle fill="#E86C60" cx="40" cy="11" r="2"/><circle fill="#458BC4" cx="35" cy="6" r="2"/><circle fill="#EFD358" cx="35" cy="16" r="2"/></g></g></svg>