<svg width="62" height="60" viewBox="0 0 62 60" xmlns="http://www.w3.org/2000/svg"><title>fq-pig</title><g stroke="#30B9DC" stroke-width="2" fill="none" fill-rule="evenodd" stroke-linecap="round" stroke-linejoin="round"><path d="M56.715 36.591c2.627-.414 4.285-2.28 4.285-5.366 0-3.523-2.727-4.09-2.727-4.09M15 32a3 3 0 1 1 6 0 3 3 0 0 1-6 0zM29 7a6 6 0 1 1 12 0 6 6 0 0 1-12 0z"/><path d="M37 53v6h10v-7.52c5.893-2.67 10-8.59 10-15.48 0-9.389-7.611-17-17-17H24.027C19.264 10.508 11 13 11 13l3.071 9.213A17.027 17.027 0 0 0 7.75 31H1v14h8.597A17.042 17.042 0 0 0 17 51.48V59h10v-6M25 53h14M29 25h12"/></g></svg>