<svg width="84" height="81" viewBox="0 0 84 81" xmlns="http://www.w3.org/2000/svg" xmlns:xlink="http://www.w3.org/1999/xlink"><title>Page 1</title><defs><path id="a" d="M0 82h83.025V0H0z"/></defs><g fill="none" fill-rule="evenodd"><path d="M9.225 38.95v-5.243c0-17.975 14.53-32.682 32.288-32.682 17.759 0 32.287 14.707 32.287 32.682v5.243" stroke="#343434" stroke-linecap="round" stroke-linejoin="round"/><path d="M1.025 52.843c0-11.883 10.473-15.899 18.45-14.722v29.444c-7.5.704-18.45-2.84-18.45-14.722zm82-.111c0 11.883-10.473 15.897-18.45 14.722V38.01c7.5-.704 18.45 2.84 18.45 14.722z" stroke="#343434" stroke-linecap="round" stroke-linejoin="round"/><path stroke="#343434" stroke-linecap="round" stroke-linejoin="round" d="M26.65 77.9h-12.3V67.65"/><mask id="b" fill="#fff"><use xlink:href="#a"/></mask><path stroke="#343434" stroke-linecap="round" stroke-linejoin="round" mask="url(#b)" d="M26.65 79.95h15.375v-5.125H26.65z"/></g></svg>