<svg width="117" height="90" viewBox="0 0 117 90" xmlns="http://www.w3.org/2000/svg"><title>Page 1</title><g stroke="#989898" fill="none" fill-rule="evenodd"><path d="M52.494 81.121H3.169a2.543 2.543 0 0 1-2.536-2.535V3.17A2.543 2.543 0 0 1 3.17.633h90.38a2.543 2.543 0 0 1 2.536 2.536V56.72" stroke-linecap="round"/><path d="M1.182 11.027h94.264M74.98 5.86a2.11 2.11 0 1 1-4.22.001 2.11 2.11 0 0 1 4.22-.001zm7.325 0a2.11 2.11 0 1 1-4.22.001 2.11 2.11 0 0 1 4.22-.001zm7.324 0a2.11 2.11 0 1 1-4.22.001 2.11 2.11 0 0 1 4.22-.001z"/><path d="M.767 33.877h95.426M.767 56.37h75.974M32.178 11.027v69.462M63.59 11.027v59.674" stroke-linecap="round"/><path d="M98.7 74.943c.169 1.608.066 4.635 0 5.11-.298 2.118-5.623 3.995-12.56 3.995-3.092 0-5.827-.337-7.951-.915"/><path d="M98.771 74.073c-.023.406-.05.718-.07.87-.299 2.119-5.624 3.996-12.56 3.996-3.314 0-6.246-.295-8.397-1.042m19.78-6.5c-1.977 1.4-6.238 2.433-11.384 2.433-6.937 0-12.072-1.7-12.56-3.997-.154-.73-.41-3.086-.04-4.875"/><path d="M95.864 66.995c-2.275.932-5.733 1.553-9.724 1.553-6.937 0-12.073-1.698-12.56-3.995-.213-1.002-.614-5.058.666-6.517M98.7 59.25c.098.768.12 1.874.107 2.885"/><path d="M98.7 59.25c0 2.206-5.623 3.996-12.56 3.996s-12.56-1.79-12.56-3.996c0-2.207 5.623-3.997 12.56-3.997s12.56 1.79 12.56 3.997zM77.703 80.177c.208 1.636.111 4.488.042 4.985-.298 2.118-5.625 3.995-12.561 3.995s-12.073-1.698-12.56-3.995c-.14-.66-.363-2.65-.13-4.348"/><path d="M77.744 79.858c0 2.207-5.623 3.997-12.56 3.997s-12.56-1.79-12.56-3.997"/><path d="M77.744 74.749c.208 1.635.07 4.807 0 5.302-.298 2.12-5.623 3.997-12.56 3.997s-12.072-1.699-12.56-3.997c-.213-1-.615-5.056.667-6.515"/><path d="M77.744 74.749c0 2.207-5.623 3.997-12.56 3.997s-12.56-1.79-12.56-3.997 5.623-3.997 12.56-3.997 12.56 1.79 12.56 3.997zm38.402 5.428c-.19 1.249-3.82 3.281-4.441 3.649-1.842 1.09-6.631-1.902-10.959-7.323-4.327-5.422-6.204-10.496-4.712-12.31.65-.791 3.327-3.705 5.265-3.614"/><path d="M115.85 80.518c-1.726 1.376-6.632-1.902-10.96-7.323-4.327-5.422-6.436-10.933-4.71-12.31 1.724-1.376 6.63 1.902 10.958 7.323 4.327 5.422 6.436 10.933 4.711 12.31z"/></g></svg>