<svg width="89" height="79" viewBox="0 0 89 79" xmlns="http://www.w3.org/2000/svg"><title>testimonial-icon-o2o</title><g transform="translate(0 1)" stroke="#343434" fill="none" fill-rule="evenodd"><path d="M12 34h12M0 48h12"/><circle cx="70" cy="8" r="8"/><path d="M55.88 22.12L40 38c-3.57 3.57-2.981 9.513 1.22 12.313l12.25 8.167a4 4 0 0 1 .904 5.827L44 78"/><path d="M26 20l6.937-6.937a8 8 0 0 1 10.654-.59L70.41 33.527a8 8 0 0 0 10.654-.59L88 26M30 54l-4.518 7.036a8 8 0 0 1-4.626 4.012L0 72"/></g></svg>