<svg width="101" height="91" viewBox="0 0 101 91" xmlns="http://www.w3.org/2000/svg" xmlns:xlink="http://www.w3.org/1999/xlink"><title>Page 1</title><defs><path d="M.098 29.596c1.125.218 2.288.333 3.477.333 9.972 0 18.054-8.044 18.054-17.966A17.83 17.83 0 0 0 17.82.923H.098v28.673z" id="a"/><path d="M13.102 18.699c.011-.263.017-.528.017-.794C13.119 9.786 7.707 2.925.276.7v18h12.826z" id="c"/></defs><g fill="none" fill-rule="evenodd"><path d="M97.224 63.921c0 12.907-10.515 23.37-23.486 23.37S50.25 76.828 50.25 63.92c0-12.906 10.516-23.369 23.487-23.369 12.092 0 22.05 9.093 23.344 20.782.094.85.142 1.713.142 2.587z" stroke="#989898" stroke-linecap="round" stroke-linejoin="round"/><g transform="translate(70.162 51.958)"><mask id="b" fill="#fff"><use xlink:href="#a"/></mask><path d="M.098 30.47L29.793.925" stroke="#989898" stroke-linecap="round" stroke-linejoin="round" mask="url(#b)"/></g><g transform="translate(78.673 46.016)"><mask id="d" fill="#fff"><use xlink:href="#c"/></mask><path d="M.276 18.699L29.97-10.848" stroke="#989898" stroke-linecap="round" stroke-linejoin="round" mask="url(#d)"/></g><path d="M77.146 67.655c0 .808-.658 1.463-1.47 1.463-.81 0-1.469-.655-1.469-1.463s.658-1.463 1.469-1.463c.812 0 1.47.655 1.47 1.463z" stroke="#989898" stroke-linecap="round" stroke-linejoin="round"/><g stroke="#989898" stroke-linecap="round" stroke-linejoin="round"><path d="M91.792 63.921c0 9.923-8.083 17.964-18.054 17.964-9.972 0-18.056-8.041-18.056-17.964 0-9.922 8.084-17.964 18.056-17.964 9.97 0 18.054 8.042 18.054 17.964z"/><path d="M96.034 89.835H4.978c-2.328 0-4.231-1.896-4.231-4.211v-60.7c0-2.316 1.903-4.21 4.23-4.21h91.057c2.327 0 4.232 1.894 4.232 4.21v60.7c0 2.315-1.905 4.21-4.232 4.21z"/><path d="M27.147 20.714V9.604c0-4.634 3.808-8.423 8.462-8.423h29.537c4.655 0 8.465 3.79 8.465 8.422v11.11"/><path d="M34.85 20v-7.636c0-2.315 1.904-4.21 4.231-4.21h22.596c2.327 0 4.23 1.895 4.23 4.21v7.637m34.358 3.982v17.193c0 9.803-8.061 17.824-17.914 17.824h-63.69C8.807 59 .745 50.98.745 41.176V23.983"/></g></g></svg>