<svg width="72" height="34" viewBox="0 0 72 34" xmlns="http://www.w3.org/2000/svg"><path d="M22.136 8.891c-1.982 1.412-2.973 3.112-2.973 5.1 0 2.38 1.225 4.206 3.674 5.479-.657 1.918-1.61 3.587-2.856 5.008-1.247 1.421-2.385 2.131-3.415 2.131-.485 0-1.147-.16-1.986-.483l-.403-.157c-.822-.323-1.55-.484-2.181-.484-.598 0-1.251.126-1.96.38l-.507.182-.636.262c-.502.2-1.009.3-1.52.3-1.203 0-2.531-.998-3.986-2.994-2.094-2.86-3.142-5.976-3.142-9.35 0-2.397.654-4.328 1.96-5.792C3.514 7.008 5.246 6.276 7.4 6.276c.805 0 1.559.148 2.26.444l.48.197.506.209c.45.192.814.288 1.091.288.355 0 .749-.083 1.182-.249l.662-.261.493-.184c.788-.287 1.658-.431 2.61-.431 2.26 0 4.077.867 5.453 2.602zM16.786.235c.027.305.04.54.04.706 0 1.508-.546 2.83-1.636 3.968-1.09 1.138-2.359 1.707-3.804 1.707a6.616 6.616 0 0 1-.065-.732c0-1.282.506-2.485 1.519-3.61C13.852 1.15 15.025.493 16.358.3c.096-.017.238-.04.429-.065zm12.688 2.11a40.214 40.214 0 0 1 2.269-.322 23.988 23.988 0 0 1 2.73-.142c1.418 0 2.641.172 3.67.517 1.028.346 1.873.84 2.534 1.482a6.122 6.122 0 0 1 1.33 2.036c.32.785.479 1.69.479 2.713 0 1.238-.219 2.321-.656 3.25a6.74 6.74 0 0 1-1.79 2.338c-.757.631-1.655 1.101-2.695 1.41-1.04.31-2.175.465-3.404.465-1.064 0-1.997-.083-2.8-.25v10.284h-1.667V2.345zm1.666 11.997c.402.12.851.203 1.347.25a16.75 16.75 0 0 0 1.596.072c2.104 0 3.746-.5 4.928-1.5s1.773-2.464 1.773-4.392c0-.928-.154-1.738-.461-2.428a4.34 4.34 0 0 0-1.312-1.696c-.567-.44-1.24-.774-2.02-1-.78-.226-1.644-.34-2.589-.34-.756 0-1.406.03-1.95.09s-.981.125-1.312.197v10.747zm24.58 7.713c0 .69.011 1.38.035 2.071.023.69.094 1.357.212 2h-1.56l-.248-2.428h-.07a6.4 6.4 0 0 1-1.968 1.91 6.087 6.087 0 0 1-1.49.66 6.333 6.333 0 0 1-1.825.25c-.828 0-1.555-.136-2.18-.41-.627-.274-1.141-.631-1.543-1.071a4.386 4.386 0 0 1-.904-1.518 5.137 5.137 0 0 1-.302-1.714c0-2 .851-3.553 2.553-4.66 1.702-1.107 4.243-1.636 7.623-1.589v-.464c0-.452-.042-.97-.124-1.553a4.908 4.908 0 0 0-.55-1.66c-.283-.524-.709-.965-1.276-1.322-.567-.357-1.336-.535-2.305-.535-.732 0-1.46.113-2.18.339a7.355 7.355 0 0 0-1.968.946l-.532-1.25a7.833 7.833 0 0 1 2.34-1.124 9.25 9.25 0 0 1 2.518-.34c1.181 0 2.145.203 2.89.608.744.404 1.329.928 1.754 1.57.426.643.715 1.363.869 2.16.153.798.23 1.59.23 2.375v6.75zm-1.667-5.106a22.913 22.913 0 0 0-2.819.107c-.98.095-1.885.304-2.712.625-.827.321-1.513.791-2.056 1.41-.544.62-.816 1.44-.816 2.464 0 .62.095 1.149.284 1.59.189.44.437.803.744 1.088.308.286.662.5 1.064.643.402.143.815.214 1.24.214.686 0 1.3-.095 1.844-.285a4.776 4.776 0 0 0 2.43-1.857 5.13 5.13 0 0 0 .62-1.25c.118-.428.177-.774.177-1.036V16.95zm4.937-7.963l4.325 11.14c.237.62.461 1.257.674 1.911.213.655.402 1.256.567 1.803h.071c.166-.523.355-1.112.568-1.767.212-.655.449-1.327.709-2.018l4.042-11.069h1.772l-4.928 12.57a143.549 143.549 0 0 1-1.4 3.623 34.648 34.648 0 0 1-1.33 2.928c-.45.87-.904 1.637-1.365 2.303a9.577 9.577 0 0 1-1.542 1.75c-.662.595-1.27 1.03-1.826 1.303-.556.274-.928.447-1.117.518l-.567-1.392c.425-.19.898-.44 1.418-.75a7.753 7.753 0 0 0 1.524-1.214c.426-.429.893-.994 1.4-1.696.51-.703.964-1.554 1.366-2.553.142-.381.213-.631.213-.75 0-.167-.071-.417-.213-.75l-6.134-15.89h1.773z" fill="#fff" fill-rule="evenodd"/></svg>