<svg width="95" height="84" viewBox="0 0 95 84" xmlns="http://www.w3.org/2000/svg"><title>cmb-user-group</title><g stroke="#999899" fill="none" fill-rule="evenodd" stroke-linecap="round" stroke-linejoin="round"><path d="M37.184 38.244c-1.71-.528-2.963-2.24-2.963-4.268 0-1.68.857-3.14 2.12-3.894"/><path d="M68.293 30.083c1.046-2.034 1.392-5.58 1.392-9.121 0-6.171-2.94-8.827-5.206-9.509.337-.88.53-1.83.53-2.824 0-4.372-3.567-7.95-7.928-7.95h-.61c-4.36 0-7.927 3.578-7.927 7.95 0 .371.034.733.084 1.09h-.084c-.611 0-5.072.364-7.929 2.304-3.424 2.327-5.513 4.89-5.859 10.362-.346 5.487 2.394 8.786 2.412 8.768v6.664c0 7.191 7.43 13.075 13.04 13.075h1.367c7.173 0 14.408-7.774 14.408-13.075V29.98"/><path d="M66.577 30.028c2.253 0 4.078 1.987 4.078 4.437s-1.825 4.437-4.078 4.437m-29.408-7.748s.813-3.127 3.121-4.643c2.31-1.517 12.194-.309 14.024-.988 1.83-.679 3.13-2.739 3.13-2.739s1.254 2.655 2.712 4.186c2.912 3.058 6.42 3.058 6.42 3.058M53.48 42.764c-.628 1.049-1.55 1.829-3.464 1.829s-2.915-.843-3.465-1.83M3.986 70.643c-1.827 0-3.307-1.61-3.307-3.599 0-1.986 1.48-3.597 3.307-3.597"/><path d="M29 70.89c-1.762 5.884-6.439 11.6-13.838 11.6-7.476 0-11.27-8.28-11.27-12.387V57.884c0-2.259 3.83-9.394 11.15-9.394h3.668c7.315 0 11.36 7.119 11.36 9.394l-.21 5.113"/><path d="M29.26 63.374c2.522.275 3.451 2.134 3.22 4.278-.371 3.417-3.837 3.13-3.837 3.13s.184-5.673.252-6.296c.068-.625.365-1.112.365-1.112zM3.892 66.32l2.275-4.94s2.976.364 4.136-.24c1.16-.602 1.963-1.852 1.963-1.852s1.408 1.9 2.762 1.947c2.459.084 10.304.197 10.304.197s.816 1.26 1.172 2.566c.354 1.307.652 6.04.983 6.646.522.952 1.155 1.317 1.155 1.317m-10.64 3.526c-.5.834-1.234 1.454-2.756 1.454-1.522 0-2.318-.67-2.757-1.454m57.097-2.613c-1.275 0-2.309-1.124-2.309-2.512 0-1.387 1.034-2.512 2.309-2.512"/><path d="M92.345 73.08a24.43 24.43 0 0 1-1.557 5.874c-.291.512-.503.893-1.59 1.075-.962.16-2.21-.031-2.21-.031s-3.664 2.636-7.332 2.636c-1.763 0-5.073-2.682-5.073-2.682s-1.299.347-2.249-.164c-1.147-.613-1.379-1.564-1.379-1.564s-.782-.366-1.2-5.899c-.418-5.516.739-9.693.739-9.693 0-1.837 3.114-7.637 9.064-7.637h2.982c5.947 0 9.235 5.786 9.235 7.637 0 0 .482 2.412.69 5.315"/><path d="M86.728 79.998s3.333-3.163 2.22-11.184c-.23-1.65-.51-3.3-.51-3.3s-6.893-.09-8.892-.16c-1.1-.037-2.245-1.582-2.245-1.582s-.653 1.018-1.596 1.507c-.943.49-3.03.228-3.03.228s-.258 5.532-.055 7.82c.444 4.958 1.963 6.624 1.963 6.624"/><path d="M81.614 77.846c-.268.389-.661.677-1.477.677-.814 0-1.242-.311-1.475-.677m12.361-7.484c0-1.387-.44-2.512.834-2.512 1.276 0 2.309 1.125 2.309 2.512 0 1.386-1.033 2.512-2.309 2.512-1.274 0-.834-1.126-.834-2.512zm-55.315 7.315a29.65 29.65 0 0 0 13.393 3.175c4.38 0 8.539-.945 12.284-2.645m13.472-42.921a29.792 29.792 0 0 1 4.318 14.956m-58.879-6.564a29.92 29.92 0 0 1 9.375-14.947"/></g></svg>