<svg width="95" height="75" viewBox="0 0 95 75" xmlns="http://www.w3.org/2000/svg"><title>cmb-card-pay</title><g fill="none" fill-rule="evenodd"><path stroke="#999" d="M.552 20.409h63.142V10.145H.552z"/><path d="M30.793 48.493H2.765a2.215 2.215 0 0 1-2.212-2.205V7.56c0-1.213.995-2.206 2.212-2.206h58.719c1.216 0 2.211.993 2.211 2.206v19.363" stroke="#999"/><path stroke="#979797" d="M30.792 41.978h63.143V31.714H30.792z"/><path d="M91.723 70.063H33.006a2.215 2.215 0 0 1-2.212-2.206V29.13c0-1.213.995-2.206 2.212-2.206h58.717c1.217 0 2.212.993 2.212 2.206v38.727a2.215 2.215 0 0 1-2.212 2.206z" stroke="#999"/><path d="M66.441 53.837H38.457a1.108 1.108 0 0 1-1.106-1.103v-4.638c0-.607.498-1.103 1.106-1.103H66.44c.608 0 1.106.496 1.106 1.103v4.638c0 .607-.498 1.103-1.106 1.103z" stroke="#999" stroke-linecap="round" stroke-linejoin="round"/><path d="M75.397 50.415h9.813" fill="#FFF"/><path d="M75.397 50.4h9.813" stroke="#999" stroke-linecap="round" stroke-linejoin="round"/><path d="M37.35 61.727h47.86" fill="#FFF"/><path d="M37.35 61.66h47.86M8.767 55.156c0 10.597 8.613 19.188 19.239 19.188l-3.196-3.822m61.951-50.783C86.761 9.142 78.148.551 67.522.551l3.384 4.18" stroke="#999" stroke-linecap="round" stroke-linejoin="round"/></g></svg>