<svg width="46" height="47" viewBox="0 0 46 47" xmlns="http://www.w3.org/2000/svg"><title>business-48px-outline_money-coins</title><g transform="translate(1 1)" stroke-width="2" stroke="#3AB5D9" fill="none" fill-rule="evenodd"><path d="M28.2 32H0V0h44v20.7"/><circle cx="22" cy="16" r="4"/><path d="M38 17v-5c-3.3 0-6-2.7-6-6H12c0 3.3-2.7 6-6 6v8c3.3 0 6 2.7 6 6h15.9m14.3 12.5c1.1.7 1.8 1.5 1.8 2.5 0 2.2-3.6 4-8 4s-8-1.8-8-4c0-.9.7-1.8 1.8-2.5"/><path d="M42.2 33.5c1.1.7 1.8 1.5 1.8 2.5 0 2.2-3.6 4-8 4s-8-1.8-8-4c0-1 .7-1.8 1.8-2.5"/><path d="M42.2 28.4c1.1.7 1.8 1.6 1.8 2.6 0 2.2-3.6 4-8 4s-8-1.8-8-4c0-.9.7-1.8 1.7-2.5"/><path d="M42.2 23.5c1.1.7 1.8 1.5 1.8 2.5 0 2.2-3.6 4-8 4s-8-1.8-8-4c0-1 .7-1.8 1.8-2.5"/><ellipse cx="36" cy="21" rx="8" ry="4"/></g></svg>