<svg width="52" height="52" viewBox="0 0 52 52" xmlns="http://www.w3.org/2000/svg"><title>fq-money</title><g stroke="#30B9DC" stroke-width="2" fill="none" fill-rule="evenodd" stroke-linecap="round" stroke-linejoin="round"><path d="M17.001 40c-1.672.628-3.749 1-6 1-5.524 0-10-2.24-10-5 0-1.126.743-2.165 2-3.001"/><path d="M17 34c-1.67.628-3.749 1-6 1-5.523 0-10-2.239-10-5 0-1.126.744-2.165 2-3"/><path d="M17 28c-1.67.628-3.748 1-6 1-5.522 0-10-2.239-10-5 0-1.126.745-2.165 2-3M19 15c1.256.835 2 1.874 2 3 0 2.761-4.477 5-10 5S1 20.761 1 18c0-1.126.744-2.165 2-3"/><path d="M19 9c1.256.835 2 1.874 2 3 0 2.761-4.477 5-10 5S1 14.761 1 12c0-1.126.744-2.165 2-3"/><path d="M21 6c0 2.761-4.477 5-10 5S1 8.761 1 6s4.477-5 10-5 10 2.239 10 5zM49.005 33.002C50.257 33.837 51 34.875 51 36c0 2.761-4.477 5-10 5-1.464 0-2.853-.158-4.106-.44"/><path d="M49.002 27c1.255.837 1.998 1.875 1.998 3 0 2.76-4.477 5-10 5-1.46 0-2.849-.157-4.1-.438"/><path d="M48.995 20.996c1.26.836 2.006 1.876 2.006 3.004 0 2.761-4.477 5-10 5-1.476 0-2.877-.16-4.137-.447"/><path d="M51 18c0 2.761-4.477 5-10 5s-10-2.239-10-5 4.477-5 10-5 10 2.239 10 5zM35 43c1.256.835 2 1.874 2 3 0 2.761-4.477 5-10 5s-10-2.239-10-5c0-1.126.744-2.165 2-3"/><path d="M34.995 36.996c1.26.836 2.006 1.876 2.006 3.004 0 2.761-4.477 5-10 5-5.524 0-10-2.239-10-5 0-1.126.743-2.165 1.998-3"/><path d="M35.005 31.002C36.257 31.837 37 32.875 37 34c0 2.761-4.477 5-10 5s-10-2.239-10-5c0-1.126.744-2.165 2-3"/><path d="M37 28c0 2.761-4.477 5-10 5s-10-2.239-10-5 4.477-5 10-5 10 2.239 10 5z"/></g></svg>