<svg width="66" height="80" viewBox="0 0 66 80" xmlns="http://www.w3.org/2000/svg"><title>Page 1</title><path d="M1 79h64V26H1zm32-53v53M1 52h64M52.633 18.837C46.332 25.14 33 26 33 26s.861-13.332 7.163-19.633c6.3-6.301 12.21-6.629 15.655-3.185 3.444 3.443 3.116 9.354-3.185 15.655zM25.837 6.367C32.14 12.668 33 26 33 26s-13.332-.861-19.633-7.163c-6.301-6.3-6.629-12.21-3.185-15.655C13.625-.262 19.536.066 25.837 6.367z" stroke="#333" fill="none" fill-rule="evenodd" stroke-linecap="round" stroke-linejoin="round"/></svg>