<svg width="122" height="91" viewBox="0 0 122 91" xmlns="http://www.w3.org/2000/svg"><title>Group 19</title><g stroke="#989898" fill="none" fill-rule="evenodd"><path d="M119.788 87.365H6.008a2.702 2.702 0 0 1-2.688-2.7V2.141"/><path stroke-linecap="round" stroke-linejoin="round" d="M.587 3.513L3.32.77l2.734 2.743m111.884 81.108l2.732 2.744-2.732 2.744"/><path d="M19.754 87.365v-30.63c0-1.04.763-1.893 1.696-1.893h13.556c.932 0 1.696.853 1.696 1.893v30.63m13.606 0V40.46c0-1.041.762-1.893 1.695-1.893h13.556c.932 0 1.696.852 1.696 1.893v46.906m13.605-.001V22.482c0-1.042.763-1.893 1.696-1.893h13.557c.931 0 1.695.851 1.695 1.893v64.883M41.547 36.664c0 7.386-5.963 13.373-13.32 13.373-7.355 0-13.318-5.987-13.318-13.373 0-7.386 5.963-13.373 13.319-13.373 7.356 0 13.319 5.987 13.319 13.373z"/><path d="M44.924 29.377a9.258 9.258 0 0 1 2.445-1.612c3.845-1.738 8.247-.619 10.843 2.458m.146 0a19.007 19.007 0 0 1-1.652-7.368C56.476 12.362 64.76 3.669 75.21 3.438c7.371-.163 13.851 3.928 17.11 10.035" stroke-linecap="round" stroke-linejoin="round"/></g></svg>